<!DOCTYPE svg PUBLIC "-//W3C//DTD SVG 20010904//EN" "http://www.w3.org/TR/2001/REC-SVG-20010904/DTD/svg10.dtd"[]><svg version="1.0" xmlns="http://www.w3.org/2000/svg" width="12" height="16" viewBox="0 0 43.000000 65.000000" preserveAspectRatio="xMidYMid meet"><g transform="translate(0.000000,65.000000) scale(0.100000,-0.100000)" fill="#000000" stroke="none"><path d="M177 623 c-16 -15 -7 -80 14 -99 24 -21 24 -25 4 43 -10 36 11 35 31 -2 23 -44 14 -63 -41 -82 -21 -7 -47 -21 -57 -30 -25 -22 -24 -92 2 -125 48 -62 45 -95 -16 -167 -24 -29 -25 -34 -12 -47 13 -13 21 -7 71 53 60 71 69 96 38 112 -20 11 -51 69 -51 97 0 15 5 13 29 -10 16 -15 52 -33 82 -41 30 -8 61 -23 69 -33 14 -17 18 -18 47 -4 18 8 35 22 38 30 11 29 -36 103 -130 206 -95 104 -105 113 -118 99z" /><path d="M70 405 c-11 -13 -10 -26 5 -75 18 -58 17 -59 -4 -100 -17 -33 -19 -45 -10 -62 11 -20 11 -20 37 5 32 33 34 73 5 175 -17 63 -22 71 -33 57z" /><path d="M30 280 c0 -56 12 -64 30 -21 9 22 9 34 0 50 -18 35 -30 24 -30 -29z" /><path d="M340 212 c-47 -47 -62 -71 -75 -116 -9 -31 -15 -62 -13 -68 5 -15 111 83 137 126 10 17 22 42 26 56 5 19 0 15 -20 -15 -32 -47 -96 -115 -107 -115 -5 0 14 30 40 68 102 140 105 156 12 64z" /><path d="M213 173 c-70 -98 -68 -91 -37 -124 15 -16 31 -29 35 -29 4 0 10 19 14 42 8 49 46 128 70 148 13 10 13 15 3 21 -25 16 -37 8 -85 -58z" /></g></svg>